<?xml version="1.0" encoding="UTF-8" standalone="no"?>
<svg width="256px" height="256px" viewBox="0 0 256 256" version="1.1" xmlns="http://www.w3.org/2000/svg" xmlns:xlink="http://www.w3.org/1999/xlink" xmlns:sketch="http://www.bohemiancoding.com/sketch/ns">
    <!-- Generator: Sketch 3.5.1 (25234) - http://www.bohemiancoding.com/sketch -->
    <title>games</title>
    <desc>Created with Sketch.</desc>
    <defs></defs>
    <g id="Page-1" stroke="none" stroke-width="1" fill="none" fill-rule="evenodd" sketch:type="MSPage">
        <g id="games" sketch:type="MSArtboardGroup">
            <g id="Icon" sketch:type="MSLayerGroup" transform="translate(128.000000, 128.000000) rotate(-10.000000) translate(-128.000000, -128.000000) translate(18.000000, 18.000000)">
                <circle id="Oval-1" stroke="#FFFFFF" stroke-width="10" sketch:type="MSShapeGroup" cx="110" cy="110" r="110"></circle>
                <rect id="Rectangle-1" stroke="#FFFFFF" stroke-width="8" sketch:type="MSShapeGroup" x="45" y="83" width="130" height="55" rx="1"></rect>
                <path d="M111.201087,82.7426529 C111.201087,69.3428663 119.555897,69.5505816 119.555897,56.150795 C119.555897,48.6742369 106.663409,38.6531262 103.578387,26.6245823 C100.638983,15.1638006 107.5,1.5 107.5,1.5" id="Line" stroke="#FFFFFF" stroke-width="5" stroke-linecap="square" sketch:type="MSShapeGroup"></path>
                <g id="Plus" transform="translate(69.000000, 100.000000)" fill="#FFFFFF" sketch:type="MSShapeGroup">
                    <rect id="Rectangle-2" x="8" y="0" width="3.5" height="20" rx="1"></rect>
                    <rect id="Rectangle-2" x="0" y="8" width="20" height="3.5" rx="1"></rect>
                </g>
                <g id="Buttons" transform="translate(132.000000, 100.000000)" fill="#FFFFFF" sketch:type="MSShapeGroup">
                    <circle id="Oval-2" cx="10" cy="3" r="3"></circle>
                    <circle id="Oval-2" cx="17" cy="10" r="3"></circle>
                    <circle id="Oval-2" cx="10" cy="17" r="3"></circle>
                    <circle id="Oval-2" cx="3" cy="10" r="3"></circle>
                </g>
            </g>
        </g>
    </g>
</svg>